TITLE ""
FILE "1Q_t_0659-0668.mp3" MP3
  TRACK 01 AUDIO
    TITLE "1Q_t_0659-0668_01"
    INDEX 01 00:00:00
  TRACK 02 AUDIO
    TITLE "1Q_t_0659-0668_02"
    INDEX 01 00:01:08
  TRACK 03 AUDIO
    TITLE "1Q_t_0659-0668_03"
    INDEX 01 00:01:18
  TRACK 04 AUDIO
    TITLE "1Q_t_0659-0668_04"
    INDEX 01 00:05:13
  TRACK 05 AUDIO
    TITLE "1Q_t_0659-0668_05"
    INDEX 01 00:05:21
  TRACK 06 AUDIO
    TITLE "1Q_t_0659-0668_06"
    INDEX 01 00:10:44
  TRACK 07 AUDIO
    TITLE "1Q_t_0659-0668_07"
    INDEX 01 00:11:12
  TRACK 08 AUDIO
    TITLE "1Q_t_0659-0668_08"
    INDEX 01 00:12:39
  TRACK 09 AUDIO
    TITLE "1Q_t_0659-0668_09"
    INDEX 01 00:12:45
  TRACK 10 AUDIO
    TITLE "1Q_t_0659-0668_10"
    INDEX 01 00:13:56
  TRACK 11 AUDIO
    TITLE "1Q_t_0659-0668_11"
    INDEX 01 00:13:66
  TRACK 12 AUDIO
    TITLE "1Q_t_0659-0668_12"
    INDEX 01 00:18:20
  TRACK 13 AUDIO
    TITLE "1Q_t_0659-0668_13"
    INDEX 01 00:18:69
  TRACK 14 AUDIO
    TITLE "1Q_t_0659-0668_14"
    INDEX 01 00:20:15
  TRACK 15 AUDIO
    TITLE "1Q_t_0659-0668_15"
    INDEX 01 00:20:25
  TRACK 16 AUDIO
    TITLE "1Q_t_0659-0668_16"
    INDEX 01 00:22:57
  TRACK 17 AUDIO
    TITLE "1Q_t_0659-0668_17"
    INDEX 01 00:22:63
  TRACK 18 AUDIO
    TITLE "1Q_t_0659-0668_18"
    INDEX 01 00:27:44
  TRACK 19 AUDIO
    TITLE "1Q_t_0659-0668_19"
    INDEX 01 00:28:14
  TRACK 20 AUDIO
    TITLE "1Q_t_0659-0668_20"
    INDEX 01 00:29:26
  TRACK 21 AUDIO
    TITLE "1Q_t_0659-0668_21"
    INDEX 01 00:29:35
  TRACK 22 AUDIO
    TITLE "1Q_t_0659-0668_22"
    INDEX 01 00:31:60
  TRACK 23 AUDIO
    TITLE "1Q_t_0659-0668_23"
    INDEX 01 00:31:68
  TRACK 24 AUDIO
    TITLE "1Q_t_0659-0668_24"
    INDEX 01 00:36:34
  TRACK 25 AUDIO
    TITLE "1Q_t_0659-0668_25"
    INDEX 01 00:37:08
  TRACK 26 AUDIO
    TITLE "1Q_t_0659-0668_26"
    INDEX 01 00:38:30
  TRACK 27 AUDIO
    TITLE "1Q_t_0659-0668_27"
    INDEX 01 00:38:34
  TRACK 28 AUDIO
    TITLE "1Q_t_0659-0668_28"
    INDEX 01 00:39:36
  TRACK 29 AUDIO
    TITLE "1Q_t_0659-0668_29"
    INDEX 01 00:39:44
  TRACK 30 AUDIO
    TITLE "1Q_t_0659-0668_30"
    INDEX 01 00:46:26
  TRACK 31 AUDIO
    TITLE "1Q_t_0659-0668_31"
    INDEX 01 00:46:73
  TRACK 32 AUDIO
    TITLE "1Q_t_0659-0668_32"
    INDEX 01 00:48:31
  TRACK 33 AUDIO
    TITLE "1Q_t_0659-0668_33"
    INDEX 01 00:48:41
  TRACK 34 AUDIO
    TITLE "1Q_t_0659-0668_34"
    INDEX 01 00:51:47
  TRACK 35 AUDIO
    TITLE "1Q_t_0659-0668_35"
    INDEX 01 00:51:57
  TRACK 36 AUDIO
    TITLE "1Q_t_0659-0668_36"
    INDEX 01 00:58:45
  TRACK 37 AUDIO
    TITLE "1Q_t_0659-0668_37"
    INDEX 01 00:59:17
  TRACK 38 AUDIO
    TITLE "1Q_t_0659-0668_38"
    INDEX 01 01:00:14
  TRACK 39 AUDIO
    TITLE "1Q_t_0659-0668_39"
    INDEX 01 01:00:22
  TRACK 40 AUDIO
    TITLE "1Q_t_0659-0668_40"
    INDEX 01 01:02:49
  TRACK 41 AUDIO
    TITLE "1Q_t_0659-0668_41"
    INDEX 01 01:02:54
  TRACK 42 AUDIO
    TITLE "1Q_t_0659-0668_42"
    INDEX 01 01:08:24
  TRACK 43 AUDIO
    TITLE "1Q_t_0659-0668_43"
    INDEX 01 01:08:71
  TRACK 44 AUDIO
    TITLE "1Q_t_0659-0668_44"
    INDEX 01 01:10:19
  TRACK 45 AUDIO
    TITLE "1Q_t_0659-0668_45"
    INDEX 01 01:10:27
  TRACK 46 AUDIO
    TITLE "1Q_t_0659-0668_46"
    INDEX 01 01:12:47
  TRACK 47 AUDIO
    TITLE "1Q_t_0659-0668_47"
    INDEX 01 01:12:55
  TRACK 48 AUDIO
    TITLE "1Q_t_0659-0668_48"
    INDEX 01 01:16:49
  TRACK 49 AUDIO
    TITLE "1Q_t_0659-0668_49"
    INDEX 01 01:17:19
  TRACK 50 AUDIO
    TITLE "1Q_t_0659-0668_50"
    INDEX 01 01:18:28
  TRACK 51 AUDIO
    TITLE "1Q_t_0659-0668_51"
    INDEX 01 01:18:40
  TRACK 52 AUDIO
    TITLE "1Q_t_0659-0668_52"
    INDEX 01 01:19:71
  TRACK 53 AUDIO
    TITLE "1Q_t_0659-0668_53"
    INDEX 01 01:20:03
  TRACK 54 AUDIO
    TITLE "1Q_t_0659-0668_54"
    INDEX 01 01:24:21
  TRACK 55 AUDIO
    TITLE "1Q_t_0659-0668_55"
    INDEX 01 01:24:70
  TRACK 56 AUDIO
    TITLE "1Q_t_0659-0668_56"
    INDEX 01 01:26:22
  TRACK 57 AUDIO
    TITLE "1Q_t_0659-0668_57"
    INDEX 01 01:26:30
  TRACK 58 AUDIO
    TITLE "1Q_t_0659-0668_58"
    INDEX 01 01:29:30
  TRACK 59 AUDIO
    TITLE "1Q_t_0659-0668_59"
    INDEX 01 01:29:36
  TRACK 60 AUDIO
    TITLE "1Q_t_0659-0668_60"
    INDEX 01 01:34:15
